<?xml version="1.0" encoding="utf-8"?>
<!-- Generator: Adobe Illustrator 26.0.1, SVG Export Plug-In . SVG Version: 6.00 Build 0)  -->
<svg version="1.1" id="Layer_1" xmlns="http://www.w3.org/2000/svg" xmlns:xlink="http://www.w3.org/1999/xlink" x="0px" y="0px"
	 viewBox="0 0 128 128" style="enable-background:new 0 0 128 128;" xml:space="preserve">
<style type="text/css">
	.st0{fill:#444545;}
	.st1{fill:#3D5AA9;}
</style>
<g>
	<path class="st0" d="M1.95,76.37h7.87c0,0,17.34-22.54,42.64-24.9c0,0,0,0,0,0v-0.06C22.96,49.07,1.95,76.37,1.95,76.37z"/>
	<path class="st1" d="M94.23,76.37h7.87c-18.17-20.65-35.5-26.2-50.18-24.93C64.76,52.55,79.21,59.3,94.23,76.37z"/>
</g>
<g>
	<path class="st0" d="M13.71,76.73h7.87c0,0,17.34-22.54,42.64-24.9c0,0,0,0,0,0v-0.06C34.71,49.43,13.71,76.73,13.71,76.73z"/>
	<path class="st1" d="M105.98,76.73h7.87c-18.17-20.65-35.5-26.2-50.18-24.93C76.52,52.91,90.96,59.66,105.98,76.73z"/>
</g>
<g>
	<path class="st0" d="M25.91,76.73h7.87c0,0,17.34-22.54,42.64-24.9c0,0,0,0,0,0v-0.06C46.91,49.43,25.91,76.73,25.91,76.73z"/>
	<path class="st1" d="M118.18,76.73h7.87c-18.17-20.65-35.5-26.2-50.18-24.93C88.72,52.91,103.16,59.66,118.18,76.73z"/>
</g>
</svg>
